<?xml version="1.0" encoding="UTF-8"?>
<svg id="Capa_2" data-name="Capa 2" xmlns="http://www.w3.org/2000/svg" viewBox="0 0 406.88 403.54">
  <g id="Capa_1-2" data-name="Capa 1">
    <path d="M358.88,268.82c0-.67.01-1.33,0-2,.86-.48.89-.81,0-1,.86-.48.89-.81,0-1,3.01-1.39,3.36-9.94,0-10.99.96-2.13-.48-5.46-3-4.99.18-1.25-.82-1.25-3,0-1.8-.98-5.28,1.1-5.99,3l-2.01-1.06c-2.8,2.41-5.46,4.76-7.98,7.05l-2.54-.27c-15.31,10.07-30.9,19.56-46.75,28.46l-5.65,4.78c-9.57,2.22-18.42,7.69-24.98,14.98-5.92,1.07-12.57,3.97-15.98,8.99l-2.45-.22c-10.42,6.17-20.39,12.3-29.93,18.39l-31.37-18.58-2.18.4c-4.64-5.01-10.35-8.37-16.98-9.99-7.87-8.09-18.11-13.96-28.97-16.98l-.95-2.85c-10.41-5.13-20.08-11.18-29.02-18.13.91-26.3,1.42-52.64,1.51-79.03-1.14-5.52-26.98-21.63-29.89-21.74-.69,1.07-1.54,1.25-2.59.87-.22-1.58-2.52-2.86-3-1-3.19-1.51-6.44,1.69-6.99,4.99l-1,.67v25.17c-1.87.87-1.02,1.93,1,2.13-2.57.82-2.62,1.49,0,2-1.01,18.28-1.78,36.7,0,54.95-1.91.56-1.91,1.43,0,2-.79,10.76-1.03,21.62-.69,32.6-1.98.27-1.6,1.62-.98,3.3,1.62,4.4,15.04,13.41,19.65,12.05,4.03,3.61,8.11,7.22,12.7,10.1,24.98,15.69,50.44,31.67,77.21,43.85.39.84.72.86,1,0,.39.84.72.86,1,0,.16,1.01.49,1.34,1,1,.18,1.12.51,1.45,1,1l1.15,3.01c8.46,5.41,17.05,10.62,25.75,15.63l3.07-.65c.72,3.25,8.59,4.87,10.99,3l2.22.38c13.41-8.54,27.2-16.49,41.36-23.84l.37-2.51c5.41-.35,13.48-5.01,15.98-9.99,7.74-.8,15.33-7.03,20.98-11.99,2.12.81,6.15-1.65,5.99-4,2.82.72,22.55-9.94,22.39-11.69-.04-.44-.21-.87-.41-1.3,1.27.77,1.38.37,1-1,1.3,1.52,1.57.7,2-1,.39.87.72.89,1,0,.38.45.87.69,1.41.75.01-.08.02-.15.04-.23.43-1.57,1.73-2.99,3.09-3.8.94-.56,2.35-1.16,3.81-1.6,1.72-.65,3.42-1.32,5.09-2.07,7.45-3.32,19.75-8.85,22.45-15.04,1.28-2.94,1.94-23.67.4-24.6-.38-.23-.84-.32-1.33-.37Z" fill="#3afcf8"/>
    <path d="M397.84,264.83c2.59.29,2.42,1.18,0,2h-38.96c0-.33,0-.67,0-1,3.6-.28,7.27-.61,10.99-1,8.55-1.82,19.4-1.6,27.97,0Z" fill="#209ba6"/>
    <path d="M397.84,266.82c-.1-.44-.09-1.53,0-2-.88-.26-.86-.6,0-1,1.21-2.19,6.21-2.89,8.08-.59,4.1,5.04-6.32,11.43-8.08,3.59Z" fill="#33ecf4"/>
    <path d="M310.92,392.7c.75.75.46,4.04-2.48,2.98-3.44-1.24,1.17-4.3,2.48-2.98Z" fill="#16aab2"/>
    <path d="M24.21,291.8c4.79,1.58,4.68,7.82,0,9.99-2.8-1.09-5.05-.8-5.52-4.89-.21-1.83,2.07-4.62,3.53-5.1.07-2.77,1.13-2.61,2,0Z" fill="#2debef"/>
    <path d="M58.17,351.74c.34.37.63,3.74-1.48,2.98-3.08-1.1.51-4.03,1.48-2.98Z" fill="#19cbcd"/>
    <path d="M.24,215.87c-.34-.37-.63-3.74,1.48-2.98,3.08,1.1-.51,4.03-1.48,2.98Z" fill="#279fa4"/>
    <path d="M388.85,189.91c.34.37.63,3.74-1.48,2.98-3.08-1.1.51-4.03,1.48-2.98Z" fill="#14d7d5"/>
    <path d="M358.88,166.92c.02.66-.03,1.33,0,2,2.86,1.01,2.79,3.94,0,4.99-2.06,10.13,6.98,40.26-11.99,28.97-2.04.58-2.41-.42-1-2l.86-2.26c6.52-1.16,7.59-6.16,7.16-11.97,3.55-3.91,2.26-12.44.78-17.61-.8-3.98,2.43-5.65,4.19-2.13Z" fill="#37f7f5"/>
    <path d="M379.86,96.99c1.95-.43,3.73-.32,3,2-.19,1.62.13,3.36,0,4.99,1.03,1.38-.61,3.22-2,2-.28.87-.62.86-1,0-.43,1.73-.76,2.69-2,1-.28.87-.62.86-1,0-3.04-2.01-2.31-5.45-3-6.99.37-.28.64-.72,1-1-.08-1.59,1.64-2.19,3-2,.62-.1,1.35.05,2,0Z" fill="#33e8ee"/>
    <path d="M379.86,105.98c.67,20.16.67,40.48,0,60.94-.22.1-.64-.05-1,0-.86-.09-1.2-.42-1-1-.87-.28-.86-.62,0-1-.84-.25-.74-2.25,0-3v-52.95c-.85-.3-.7-1.52,0-2l2-1Z" fill="#269ea1"/>
    <path d="M377.86,165.92c.47.07.89.52,1,1-6.03.81-13.66-.48-19.98,0-.89-.18-.86-.52,0-1,2.48-1.02,5.5-1.36,9.05-1.03,4.01-.89,6.44-.78,9.93,1.03Z" fill="#2adfec"/>
    <path d="M181.86,84.45l-6.6-2.16c-.83-5.81-3.87-14.01-10.92-13.31-.58-4.3-.97-8.6-1.17-12.88l-5.09.93c-.38-.84-.71-.85-1,0,.14,1.51-.2,1.3-1,2-2.73-.7-3.73-.37-3,1-.79-.08-.92.3-1,1-.34-.38-.86-.4-1.41-.21-.08.41-.22.84-.42,1.26-1.42,3.02-5.5,4.74-8.36,6.05-2.31,1.05-4.73,2.15-7.2,2.96-.8.83-1.95,1.38-3.45,1.38-.18,0-.35-.01-.52-.03-.35.55-.58,1.09-.63,1.58-1.38.09-2.38.43-3,1-1.66.54-1.99,1.2-1,2l-2.19-.03c-16.87,9.72-33.81,19.13-50.81,28.23-3.52,2.23-8.34,5.36-9.94,8.77-3.45-.45-7.02,1.99-6.86,5.83.25,6.13,9.58,10.24,14.86,11.15.77,1.24,2.44,1.9,5,2,0,.02.03.06.05.08.65.1,1.31.37,1.93.83,2.62,1.01,4.59,2.65,7.07,4.01,1.24.68,1.98,1.61,2.3,2.62.44.23.89.47,1.33.7.25-.15.5-.11.64.33,1.61.82,3.21,1.65,4.75,2.57.12.07.23.15.34.23.79-.08,1.58-.19,2.33-.31.08-.01.2-.04.34-.09.38-.51.89-.97,1.55-1.34,4.43-2.44,9.14-4.45,13.38-7.24,3.34-2.2,6.2-5,9.47-7.28.24-.22.5-.42.81-.59,1.37-2.69,3.68-3.24,6.26-4.35,1.86-.8,3.38-1.56,5.12-2.04,5.22-3.37,10.67-6.34,16.3-9.02.32-.36.64-.7.95-1.08.55-.03,1.11-.08,1.65-.14,1.46-.67,2.93-1.32,4.42-1.95.72-.31,1.43-.44,2.1-.45,8.95-5.21,18.89-11.38,25.79-18.44,1.07-3.47.62-5.82-3.19-5.55Z" fill="#3afcf8"/>
    <path d="M149.09,32.06c2.59-10.52,11.11-5.16,8.84,1.34-.61,1.74-3.33,1.41-3.86,4.14-.75,3.87-.14,13.52.01,18.04.06,1.92-1.02,4.01,2,3.45-1.51,1.32-2.56.74-3,1-1.13-6.47,1.53-18.6,0-24.25-.25-.92-3.47-2.21-4-3.72Z" fill="#2dd1d8"/>
    <path d="M30.2,129.96c-1.68-.52-3.24-2.82-5.03-3.14-.47.04-.92.1-1.37.18-.8.38-1.66,1.27-2.59,2.96.88,9.52,3.34,6.84,6.64,4.98.57-.53,1.33-.94,2.31-1.14.16-.03.32-.05.48-.08.38-.28.25-.54-.43-.76,2.54-.76,2.65-1.68,0-2,.86-.38.87-.72,0-1Z" fill="#3be4ee"/>
    <path d="M89.15,78.01c-2.65.58-4.13,3.73-7.48-.07-3.55-4.02,1.92-9.25,6.33-6.74.48.27.64,2.16,1.15,2.81l2,1c.87.28.86.62,0,1-1.93.19-2.28-.7-2,2Z" fill="#3ce6f1"/>
    <path d="M245.99.09c5.31-1.14,6.21,8.96,1,8.99-.1.91-.45.86-1,0-.33.85-.66.85-1,0-.28.87-.62.86-1,0-.28.87-.62.86-1,0-.84-3.84-6.91-6.29,3-8.99Z" fill="#31e7f1"/>
    <path d="M119.12,74.02c3.6-.82,7.35-.7,10.99,0-1.14.42-1.1.76-3,1-2.34.94-5.01.94-7.99,0-8.91.9-19.11.97-27.97,0-1.17-.17-1.21,0-2-1h1c9.63-.83,19.36-.9,28.97,0Z" fill="#0f444a"/>
    <path d="M338.9,65.03c.11,2.33.03,2.75-2,4-.29,1.48-.83,2.09-2,1-.54,2.02-1.48,2.03-2,0-2.98-.58-3.07-2.83-4-3-1.3-1.28.12-4.68,2-4.99.48-.11,1.09.19,1.48,0,.48-.2.57-.51.52-.99,3.05-.59,4.76,3.56,5.99,4Z" fill="#35e4eb"/>
    <path d="M334.91,70.02l.98.3c-.35,7.32-.68,14.55-.98,21.68-1.95-3.35-1.59-8.98-1-12.99-.28-2.17-.61-4.5-1-6.99v-2c.48.09,1.49.08,2,0Z" fill="#269196"/>
    <path d="M334.91,92c.88.44.66,1.23,0,2,.81,1.4.87,3.63,0,4.99-1.13.19-1.8-1.14-2-4v-15.98c.28-.87.62-.86,1,0,.03,4.47.76,8.92,1,12.99Z" fill="#2ba7aa"/>
    <path d="M334.91,98.99c1.14.43.48,2.73,0,4,.87.28.86.62,0,1-2.52,1.49-3.03.6-2-2v-6.99l2,4Z" fill="#25b8b9"/>
    <path d="M333.91,79.01h-1v-6.99c1.73,1.36.98,4.81,1,6.99Z" fill="#30b6ba"/>
    <path d="M121.12,15.08c.66-.62,3.96.47,3.97,1.49.03,2.98-5.87.28-3.97-1.49Z" fill="#12adb1"/>
    <path d="M281.11,243c-1.95-1.8-3.89-3.52-6.38-4.72-.56-.27-1.12-.52-1.67-.78.7,2.86,5,5.74,8.05,5.49Z" fill="#0b1924"/>
    <path d="M132.52,168.37c.09.1.18.19.27.29.51.18,1.02.39,1.53.61.33-1.5-.74-2.73-2.11-3.52-.13.34-.31.66-.51.96.36.47.64,1.02.81,1.66Z" fill="#0a1721"/>
    <path d="M58.18,257.83h-1c-8.6.7-18.56-.95-26.97,0-2.95.9-4.94.9-5.99,0-.59,2.64-.92,5.3-1,7.99-.28.87-.62.86-1,0v-8.99c11.59-.33,23.24-.66,34.97-1h1c0,.67,0,1.33,0,2Z" fill="#27b4bb"/>
    <path d="M323.92,325.76c-.08,8.31,0,16.66,0,24.97v3c1.34,1.33,1.34,1.99,0,2-2.26,1.38-2.6.38-1-3-.99-8.01-.81-16.92,0-24.97-.52-3.36-1.17-8.82,0-11.99.25-.15.75.15,1,0-.02,3.32.03,6.67,0,9.99Z" fill="#144a52"/>
    <path d="M170.07,361.73v6.99c.85,8.31.81,16.66,0,24.97-1.66,1.36-2.24.79-1-1-.99-6.26-.84-13.81,0-19.98-.87-3.47-.82-8.42,0-11.99.38.22.66.8,1,1Z" fill="#163d44"/>
    <path d="M65.17,165.92l-6.99,4.99v-4.99c1.34-.63,2.9-1.92,4.37-1.8,1.38.11,1.99,1.51,2.62,1.8Z" fill="#35f1f0"/>
    <path d="M58.18,198.89v2h-1c-5.53-1.47-14.03-1.5-19.98-1-.88-1.27-.45-1.73,1-1,6-.87,13.75.63,19.98,0Z" fill="#21cfdb"/>
    <path d="M169.07,360.73v11.99c-.28.87-.62.86-1,0v-12.99c.46.27.72.84,1,1Z" fill="#26dbdc"/>
    <path d="M322.92,315.77v11.99c-.28.87-.62.86-1,0-.01-3.45.84-8.35-1-10.99.78-.46,1.5-.71,2-1Z" fill="#2fe7ea"/>
    <path d="M362.88,264.83c1.76-.69,5.03-1.66,5.99,0h1c-.13,0-1.14.93-2.41,1.04-2.81.24-5.75-.23-8.58-.04,0-.33,0-.67,0-1h4Z" fill="#1eaeb6"/>
    <path d="M170.07,393.7c.78,1.39,1.48,2.33,3,3,.1,3.46-.35,6.85-4.5,6.85-4.9,0-3.87-3.67-4.5-6.85-.63-1.33.58-2.66,2-2,.67-.48,1.67,1.05,2-2,.28-.87.62-.86,1,0,.19.95.89.81,1,1Z" fill="#30e9ec"/>
    <path d="M323.92,355.73c1.44-.65,3.64,1.44,3,3,.07.58.07,1.42,0,2,.22,2.76-3.81,5.94-5.99,4-1.96-2.69-5.55-5.4-1-8.99,1.05-.83,1.69,1.91,2-3,.28-.87.62-.86,1,0,.2,1.81.02,1.49,1,3Z" fill="#35eaeb"/>
    <path d="M39.2,173.92c-.28.87-.62.86-1,0-.32,2.65-1.24,2.54-2,0-.28.87-.62.86-1,0-.42-1.9-6.41-8.63,1.49-9.09,9.53-.56,2.97,7.02,2.5,9.09Z" fill="#31e3eb"/>
    <path d="M38.2,173.92c.75,7.34.75,14.67,0,21.98v3c-.47.07-.89.52-1,1-.34.03-.71-.07-1,0-.71-8.51-.71-17.17,0-25.97h2Z" fill="#25a0a6"/>
    <path d="M51.98,132.67c2.04-.06,4.08-.11,6.11-.12-3.4-1.09-8.53-1.17-11.45.18,1.79,0,3.57,0,5.34-.06Z" fill="#06060f"/>
    <path d="M24.21,280.81c.25,3.62-.18,7.36,0,10.99-.29-.1-1.71-.1-2,0v-25.97h1c.26,5.03.6,10.02,1,14.98Z" fill="#20a2a8"/>
    <path d="M57.18,255.83c-11.04,2.3-23.47.37-34.97,1v-1h34.97Z" fill="#1c828c"/>
    <path d="M320.92,220.87c-4.2,6.81-13.46-1.24-5.99-5.99,5.49-.35,5.57,1.55,5.99,5.99Z" fill="#2fe5f1"/>
    <path d="M3.74,96c2.12-.48,3.1,2.5.97,2.99s-3.1-2.5-.97-2.99Z" fill="#1dd3d5"/>
    <path d="M283.13,167.29c-2.08-1.08-4.86.8-3.74,2.88.69-.36,1.33-.71,1.99-.97.43-.69,1.09-1.34,1.76-1.9Z" fill="#0b1924"/>
    <path d="M286.23,163.7s0-.05-.01-.07c-.09-.13-.18-.24-.27-.37-.27-.41-.46-.83-.59-1.24-.61-.77-1.41-1.4-2.18-2.11.52,2.38.78,4.38.79,6.71.42-.32.8-.6,1.06-.81.15-.12.64-.55,1.01-.89.01-.42.07-.83.18-1.23Z" fill="#0c151f"/>
    <path d="M357.88,117.97c-1.59-.61-2.14-1.71-3-3-2.97-2.61-6.01-5.13-9.99-5.99.41-3.38-7.48-6.91-9.99-4.99-.65-.39-1.26-1.55-2-2-22.88-13.79-46.05-27.18-68.93-40.96-4.92-5.17-11.46-8.26-17.98-10.99-.18-1.12-.51-1.45-1-1-.39-.84-.72-.86-1,0-.37-.23-.64-.78-1-1-.49-1.37-1.64-2.64-3.12-3.77-2.02.76-4.41.32-5.74-2.14.59,1.09-.2.08-1.04-.24-1.12-.43-2.18-.99-3.21-1.61-.74-.45-1.44-.88-2.14-1.3-5.23-1.46-8.99-4.98-12.92-7.35-1.9-.8-3.89-.99-6.02-1.05-.42.12-.85.2-1.28.2h-1.15c-.59.67-1.43,1.17-2.6,1.37-4.98.85-8.8,3.56-12.84,6.12-2.05,4.62-10.87,7.97-15.88,9.78-.14-.05-.33-.07-.52-.07-2.98,1.59-6.22,2.75-9.2,4.35-.38,1.01-1.07,1.88-2.08,2.33-.04-.03-.08-.05-.12-.08-1.3,1.1-2.92,1.38-4.41,1.1.03.43.2.95.35,1.36,0,0,0,0,0,0h2.99c-1.18,2.26-.35,12.76.94,13.56,1.51.93,3.55-.27,5.16,1.08,2.93,2.46,5.99,9.38,4.9,13.33,4.95-1.99,7.19,3.15,11.98,1.01l-2.99,2.01,2.99,1.98.51.23c1.34-1.07,2.8-1.98,4.35-2.8,1.19-.62,2.33-.77,3.34-.59,2.12-1.06,4.21-2.17,6.19-3.43,2.67-1.71,5.1-3.51,8-4.03h.02s0,0,0,0c1.07-.19,2.2-.21,3.44.02,1.32.25,2.25.87,2.83,1.69.1-.02.21-.04.3-.07,2.35,2.39,4.76,4.78,7.64,6.53,11.16,6.78,22.53,13.5,33.86,19.99,2.92,1.67,6.21,2.58,9.45,3.45l.18.94c2.55,1.12,5.08,2.39,7.42,3.7,2.58,1.44,5.75,3.29,8.18,5.39l.2-.03c4.92,4.88,11.2,8.05,17.98,9.99l.02,1.06c.25.1.5.2.74.33,1.44.75,2.73,1.74,4.04,2.67,2.4,1.7,5.51,3.9,8.24,4.94,1.45.55,2.39,1.54,2.9,2.69l2.03-.71c1.58,11.39-2.56,30.73,1,40.96,6.41,3.38,12.05,6.63,16.98,11.99-.44,2.82,6.78,7.94,8.99,5.99.64-.09,1.41.13,2,0,9.07-1.95,10.31-5.76,10-14.98l1.98,1.99c-.44-7.07,1.5-14.55-1.98-20.97.99-.07,2,.07,2.99,0-.01-.33,0-.67,0-1-.45-15.91,1.05-32.14-1-47.95Z" fill="#3bfdf9"/>
    <path d="M57.95,132.55c3.56-.02,7.1.07,10.64.4h7.56c-1.2-.56-3.91-1.82-5-2-1.22-.2-6.97.08-8.99,0-1.66-.07-3.33.04-5,0-.36.66-.09,1.19.78,1.59Z" fill="#31b1b2"/>
    <path d="M127.11,75.02c.08,1.02-.23,1.42-1,2-1.36-1.74-4.8-.98-6.99-1-.87-.28-.86-.62,0-1,2.56-.08,5.57.3,7.99,0Z" fill="#26dee3"/>
    <path d="M191.15,38.13c-1.51.96-3.05,1.9-4.68,2.72-2.91,1.46-5.25,3.19-7.84,4.23-.34.41-.74.78-1.18,1.1-.7.51-1.44.96-2.19,1.38-.08.16-.15.32-.19.48.29.11.16,1.85,2.06,1.6.88-.11,14.96-7.83,15.47-8.56,1.43-2.06-.31-2.08-1.44-2.96Z" fill="#36f7f4"/>
    <path d="M119.12,75.02v1c-8.62-.09-19.66-.81-27.97,0v-1c7.06,1.02,20.31.22,27.97,0Z" fill="#31ccd5"/>
    <path d="M47,132.74c1.41-.41,2.02-.84.18-1.78h-16.98v2h6.48c3.42-.23,6.88-.22,10.32-.22Z" fill="#288f98"/>
    <path d="M245.99,50.04c-.38-.23-.66-.79-1-1-.87-3.15-.82-7.74,0-10.99-.83-9.08-.81-19.69,0-28.97.33,0,.67-.03,1,0v40.96Z" fill="#24a0a2"/>
    <path d="M244.99,38.05c-.28.87-.62.86-1,0V9.08h1v28.97Z" fill="#29b3b5"/>
    <path d="M244.99,49.04c-.24-.15-.76.15-1,0v-10.99h1v10.99Z" fill="#22c7c1"/>
    <path d="M51.98,132.67c2.37-.07,4.73-.12,7.09-.12-.33-.68-1.39-1.03-1.89-1.6-3.32-.08-6.67,0-9.99,0l-.89,1.78c1.9,0,3.8,0,5.68-.06Z" fill="#309fa3"/>
    <path d="M283.27,244.95c-.8-.7-1.56-1.41-2.32-2.11-3.96-.19-6.27-2.75-8.77-5.74-4.84-2.19-9.32-4.22-11.78-9.27-1.98-1.86-4.39-3.27-7.01-3.92-3.56.26-6.98,1.16-10.36,2.48-1.37,1.65-3.35,1.91-5.09,1.29-1.03,1.11-1.77,2.25-1.94,3.19-1.37-1.15-1.73-1.07-3,0-.38-.86-.72-.87-1,0-.25.44-.45.93-.62,1.45.06,2.47-1.74,4.2-3.83,4.75-.08.09-.16.18-.25.26-.93.92-1.96,1.36-2.97,1.44-1.48,1.4-3.01,2.74-4.68,3.91-1.16.82-2.33,1.58-3.66,2.07-.88.32-1.79.54-2.72.66-.11.14-.24.3-.41.5-4.4,3.66-9.63.22-14.19-2.72-1.33-.64-2.61-1.41-3.83-2.27-.55-.39-.99-.83-1.33-1.29-.66-.38-1.31-.75-1.95-1.11-5.79-3.25-11.84-6.04-17.33-9.82-.15-.1-.27-.22-.41-.32-7.71-2.26-14.9-5.25-20.57-11.53-3.22-3.56-11.19-5.68-13.42-10.31-.58-.22-1.16-.46-1.74-.67-.91-1.93-2.08-1.93-3,0-.42,0-1.37.87-2,1-1.91-.86-3.91,2.2-2,3-.81,12.47-.96,24.96-.44,37.49-2.47,1.85.2,4.83,2.33,6.52l73.12,43.6c4.75,1.1,18.7-7.07,22.7-10.24l.19-2.44,1.51.65c8.96-5.56,18.11-10.98,27.42-16.27l1.04-2.37c8.17-2.79,15.65-6.8,22.44-12.05l.53-1.94c.34-.23.62-.73,1-1,2.06-.89,2.57-3.31,2.09-5.49-.61-.44-1.21-.9-1.78-1.4Z" fill="#3afdf8"/>
    <path d="M277.3,239.81c-.48-.3-.95-.61-1.43-.92-.37-.21-.75-.42-1.14-.61-.94-.45-1.87-.87-2.79-1.29,0,.58.33,2.66-2.97,1.87.46,2.21,3.19,1.62,4.9,2.58,2.89,1.62,4.06,4.99,7.58,1.87-1.34-1.24-2.67-2.45-4.15-3.5Z" fill="#37f3f2"/>
    <path d="M283.89,245.47c-.39,1.62-1.81,1.25-1.91,1.39-1.46,2.14,3.68,1.61.98,4.98.36-.26,1.59-.01,2.46-.99,1.17-1.31,1.63-2.32,1.61-3.17-1.08-.69-2.14-1.41-3.14-2.22Z" fill="#37f3f2"/>
    <path d="M132.84,160.48c-.1.38-.2.76-.27,1.15-.03.16-.06.32-.08.49.03-.14.02,0-.02.45,0,.21,0,.43,0,.64,4.61-3.41,9.27-6.74,14.01-9.94l-.18-.6c-2.14,1.13-4.3,2.18-6.62,2.91-.67.55-1.34,1.11-2.03,1.66-1.49,1.18-3,2.29-4.68,3.18-.03.02-.09.05-.13.08Z" fill="#0b1924"/>
    <path d="M132.49,164.03c.06,1.01-.24,1.92-.77,2.69.35.46.63,1.01.8,1.65.09.1.18.19.27.29,1.46.51,2.96,1.25,4.39,2.01,2.1.76,4.13,1.67,6.12,2.71,1.17.61,2.26,1.46,3.37,2.26,2.88.21,5.23,2.36,7.66,3.8.65.38,1.3.81,1.95,1.25l1.44-1.45c4.94,1.63,7.96-2.07,3.22-5.34,7.92-6.41,2.56-14.28-6.58-12.54.4-2.54.04-4.82-1.08-6.82,3.54-1.53,9.54-6.98,4.69-8.41-1.27,1.05-2.62,2.02-4.24,2.75-.99.9-2.32,1.49-3.73,1.8-3.43,1.78-6.68,3.73-10.33,4.88-.67.55-1.34,1.11-2.02,1.65-1.49,1.18-3,2.29-4.68,3.18-.03.02-.09.05-.13.08-.1.38-.2.76-.27,1.15-.03.16-.06.32-.08.49.03-.14.02,0-.02.45.01.49,0,.98.02,1.47Z" fill="#39f9f6"/>
    <path d="M187.88,175.52c.53-.29,1.04-.6,1.55-.92-2.98-1.09-8.89,1.82-9.33,4.89,2.57-1.37,5.21-2.54,7.78-3.97Z" fill="#0c1d2a"/>
    <path d="M158.24,182.04c1.23.4,2.24,1.12,3.38,1.94.84.5,1.67,1.03,2.47,1.61.98.56,1.93,1.05,2.82,1.53,2.91-.87,5.24-2.49,7.72-4.21-2.21-.05-4.79.66-7.72,2.16-2.82-2.03-5.1-2.74-6.83-2.15.35-2.83-1.67-4.02-3.77-2.2.59.4,1.19.82,1.78,1.25.05.03.1.06.15.09Z" fill="#0c1d2a"/>
    <path d="M24.21,280.81c-.01-.17-.97-1.12-1.04-2.42-.21-4.11,0-8.44.04-12.57.02-2.5-.78-6.33,1-7.99-.83.8.62,19.91,0,22.98Z" fill="#208f97"/>
    <path d="M322.92,352.74h-1c.51-7.95.03-16.9,0-24.97h1c0,7.71-.8,17.62,0,24.97Z" fill="#32dbdb"/>
    <path d="M169.07,392.7h-1c.65-5.93,0-13.77,0-19.98h1c0,5.27-.91,15.53,0,19.98Z" fill="#2fcfd0"/>
    <path d="M317.92,182.91c3.59-1.68,8.76,3.21,11.98,4.57l5.01,7.42c-.3-.08-.66.06-1,0-4.02-4.36-14.11-6.59-15.98-11.99Z" fill="#35f7f4"/>
    <path d="M285.95,163.26c-.27-.41-.46-.83-.59-1.24-.72-.9-1.69-1.61-2.58-2.48-.49-.48-.85-.99-1.1-1.5-8.28-5.58-19.85-9.63-27.69-16.1,0-.12-.04-.24-.07-.37-1.04-.55-2.06-1.15-3.09-1.74-1.83-1.05-3.72-1.93-5.35-3.23-.18.09-.34.2-.49.35-9.18-4.99-23.87-16.02-32.25-19.2-2.05-.78-3.55-.95-5.71-.78-4.96,4.18-10.29,7.17-15.98,8.99-1.43-.07-2.78.22-4,1-3.31-.24-12.33,4.52-11.99,7.99-.36.22-.75.39-1.14.56-.36.38-.82.72-1.37,1.02-.56.3-1.08.54-1.6.76-.26.13-.52.26-.79.39-.08.06-.16.11-.25.17-1.07.64-2.16,1.22-3.26,1.8-.4.47-.94.88-1.63,1.21-3.01,1.44-5.1,3.72-7.54,5.67,2.19,3.85-7.4,6.44-7.39,7.91,3.98,2.47,1.73,4.58,2.07,8.39,1.37,1.96,9.7-2.55,10.65,4.76.49,3.75-4.74,3.23-3.8,7.75.11.54,3.85.76,2.03,2.57-.32.32-4.61-1.57-5.98-.99l.89,3.57c.66.44,1.32.9,1.98,1.37.18.09.35.17.52.25.51.19.98.43,1.44.71.05.03.1.05.15.08,5.06,1.26,9.39.99,12.99-.8.68-3.89,4.38-4.98,6.75-2.46,2.66-1.43,5.4-2.64,8.07-4.12,6.92-3.84,12.15-9.98,20.28-11.25,3.35-.52,6.69-.24,9.33,2.1,1.48,1.31,2.4,2.76,4.11,3.86,1.7,1.1,3.66,1.81,5.47,2.7,7.57,3.72,13.73,9.68,21.02,13.77.2-.02.39-.05.6-.05.51,0,1.01-.09,1.49-.24.46-.1.91-.13,1.35-.13,1.27-1.05,2.59-2.04,4.11-2.79,2.23-1.11,4.4-2.27,6.6-3.43.18-.22.39-.43.63-.63,3.33-2.72,6.97-4.59,10.75-6.59,1.8-.95,3.72-1.63,5.52-2.56.79-.41,1.49-.8,2.23-1.1.9-1.45,2.83-2.7,3.66-3.38.14-.11.55-.48.91-.79.06-.19.1-.38.14-.56.01-.1.03-.2.05-.3.02-.2.04-.4.03-.6-.07-.1-.15-.2-.21-.3Z" fill="#3afdf8"/>
    <path d="M232.01,211.88c-.55-.86-.9-.92-1,0-.14,1.22-.25,2.43-.33,3.64,0,.02,0,.04,0,.06,0,.24,0,.48-.03.71,0,.08,0,.16,0,.24,0,0,0,0,0,0,.14.81.27,1.63.31,2.45.08,1.48-.04,2.92-.26,4.38.02,2.59-.14,5.19.51,7.69.24.92.23,1.76.04,2.51.92-1.14.59-1.22.76-2.71,1.14-6,.61-12.9,0-18.98Z" fill="#196169"/>
    <path d="M233.01,230.86h-1c.67-5.94-.49-12.91,0-18.98.3-.85.63-.84,1,0v18.98Z" fill="#2ed5d8"/>
    <path d="M230.01,211.88c-.19-1.37-4.11-4.36-.75-7.74,4.78-4.82,12.47,4.79,3.75,7.74-.25.08-.65-.03-1,0-.33.03-.67-.02-1,0-.28.87-.62.86-1,0Z" fill="#34e4ea"/>
    <path d="M153.5,149.02c-1.25.53-2.45,1.13-3.63,1.75,1.5-.28,2.96-.91,4-1.93-.13.06-.24.13-.37.19Z" fill="#0c1f2b"/>
    <path d="M153.5,149.02c-1.69.72-3.3,1.56-4.89,2.41,2.04,1.12,7.58-1.82,7.19-3.67-.72.47-1.46.91-2.3,1.26Z" fill="#3afdf8"/>
    <path d="M160.08,182.91c.19.1.39.24.6.41.32.22.64.45.98.69.82.49,1.62,1,2.41,1.57.92.53,1.81.99,2.66,1.44.16,0,.32.02.48,0,2.94-.95,5.31-2.65,7.87-4.43.08-1.82,1.17-2.62,2.73-1.8.71-.43,1.43-.83,2.15-1.22-1.79-6.26-6.63,1.14-9.54,2.02-2.01.61-6.7-.59-8.86-.67-2.86-.11-.21,1.24-1.48,1.99Z" fill="#39f9f6"/>
    <path d="M174.78,182.8c.6-.42,1.2-.83,1.82-1.25.5-.33,1-.64,1.51-.94.51-3.98-7.48.56-3.33,2.19Z" fill="#3afdf8"/>
    <path d="M207.03,116.97c-3.1,1.03-3.1,4.79-4.55,5.85-.9.67-7.29,3.81-8.2,3.96-1.75.28-2.63-.79-3.24-.82,3.71-2.83,11.68-8.65,15.98-8.99Z" fill="#35f4f3"/>
  </g>
</svg>